<svg xmlns="http://www.w3.org/2000/svg" width="102" height="24" fill="none" viewBox="0 0 102 24"><g fill="#fefaee" clip-path="url(#a)"><path fill-rule="evenodd" d="M6.427 1.5V24H.418V1.5zM9.432 1.5H22.2c4.149 0 7.512 3.358 7.512 7.5s-3.363 7.5-7.512 7.5h-6.76V24H9.432zm6.008 9h6.76a1.501 1.501 0 1 0 0-3h-6.76zM52.245 1.5v11.625A4.88 4.88 0 0 0 57.127 18a4.88 4.88 0 0 0 4.882-4.875V1.5h6.01v11.625C68.018 19.131 63.141 24 57.126 24s-10.891-4.869-10.891-10.875V1.5z" clip-rule="evenodd"/><path fill-rule="evenodd" d="M31.965 12c0-5.799 4.708-10.5 10.516-10.5h1.502v6H42.48a4.503 4.503 0 0 0-4.507 4.5v.75c0 6.213-5.044 11.25-11.267 11.25h-.75v-6h.75a5.254 5.254 0 0 0 5.258-5.25z" clip-rule="evenodd"/><path d="M101.818 2.25a2.25 2.25 0 0 1-2.254 2.25 2.25 2.25 0 0 1-2.252-2.25A2.25 2.25 0 0 1 99.563 0a2.25 2.25 0 0 1 2.254 2.25M74.47 24l2.868-11.99 2.131 7.214c1.271 4.302 7.374 4.302 8.645 0l2.131-7.213L93.113 24h6.177L94.782 5.148c-1.072-4.484-7.4-4.65-8.706-.229l-2.284 7.731-2.285-7.73c-1.306-4.421-7.634-4.256-8.706.228L68.293 24z"/></g><defs><clipPath id="a"><path fill="#fff" d="M.418 0h101.4v24H.418z"/></clipPath></defs></svg>