<svg xmlns="http://www.w3.org/2000/svg" width="37" height="24" fill="none" viewBox="0 0 37 24"><g fill="#fefaee" clip-path="url(#a)"><path d="M33.932.75c0 .414.336.75.75.75h.75a.75.75 0 0 0 0-1.5h-.75a.75.75 0 0 0-.75.75M12.182 24h3.643l-1.06-1.06a1.5 1.5 0 0 0-1.061-.44h-1.522c-5.8 0-10.5-4.701-10.5-10.5s4.7-10.5 10.5-10.5h12c5.799 0 10.5 4.701 10.5 10.5s-4.701 10.5-10.5 10.5h-4.49a2.25 2.25 0 0 1-1.59-.659l-1.243-1.243a3.75 3.75 0 0 0-2.651-1.098h-2.026a7.5 7.5 0 1 1 0-15h12a7.5 7.5 0 0 1 0 15h-2.883a2.25 2.25 0 0 1-1.59-.659l-1.243-1.243a3.75 3.75 0 0 0-2.652-1.098h-3.632a4.5 4.5 0 1 1 0-9h12a4.5 4.5 0 0 1 .09 9h-1.098a2.25 2.25 0 0 1-1.59-.659l-1.243-1.243a3.75 3.75 0 0 0-2.121-1.06l-.038-.038h-6a1.5 1.5 0 0 1 0-3h12a1.5 1.5 0 0 1 0 3h-3l1.06 1.06a1.5 1.5 0 0 0 1.061.44h.879a3 3 0 0 0 0-6h-12a3 3 0 0 0 0 6h5.507c.597 0 1.17.237 1.591.659l1.243 1.243A3.75 3.75 0 0 0 23.174 18h1.383v-.012A6 6 0 0 0 24.182 6h-12a6 6 0 0 0 0 12h3.632c.597 0 1.17.237 1.591.659l1.243 1.243A3.75 3.75 0 0 0 21.299 21h2.883a9 9 0 1 0 0-18h-12a9 9 0 1 0 0 18h2.026a2.25 2.25 0 0 1 1.59.659l1.243 1.243A3.75 3.75 0 0 0 19.693 24h4.489c6.627 0 12-5.373 12-12s-5.373-12-12-12h-12c-6.628 0-12 5.373-12 12s5.372 12 12 12"/></g><defs><clipPath id="a"><path fill="#fff" d="M.182 0h36v24h-36z"/></clipPath></defs></svg>