<svg width="56" height="56" viewBox="0 0 56 56" fill="none" xmlns="http://www.w3.org/2000/svg">
<circle cx="28" cy="28" r="28" fill="#FEFAEE"/>
<circle cx="28" cy="28" r="27.4167" stroke="#171717" stroke-opacity="0.16" stroke-width="1.16667"/>
<g clip-path="url(#clip0_18_148)">
<path fill-rule="evenodd" clip-rule="evenodd" d="M32.8612 21.3081C31.4223 20.3467 29.7306 19.8335 28 19.8335V11.0835C31.4611 11.0835 34.8446 12.1099 37.7225 14.0328C40.6004 15.9557 42.8433 18.6888 44.1679 21.8865C45.4924 25.0842 45.839 28.6029 45.1637 31.9976C44.4885 35.3922 42.8218 38.5105 40.3743 40.9578C37.927 43.4053 34.8087 45.072 31.4141 45.7472C28.0194 46.4225 24.5007 46.0759 21.303 44.7514C18.1053 43.4268 15.3722 41.1838 13.4493 38.306C11.5264 35.4281 10.5 32.0446 10.5 28.5835H19.25C19.25 30.3141 19.7632 32.0058 20.7246 33.4447C21.6861 34.8837 23.0527 36.0052 24.6516 36.6674C26.2504 37.3297 28.0097 37.503 29.707 37.1653C31.4044 36.8277 32.9634 35.9944 34.1872 34.7707C35.4109 33.5469 36.2442 31.9879 36.5818 30.2905C36.9195 28.5932 36.7462 26.8338 36.084 25.235C35.4217 23.6362 34.3002 22.2696 32.8612 21.3081Z" fill="#171717" fill-opacity="0.8"/>
<path fill-rule="evenodd" clip-rule="evenodd" d="M19.25 11.0835C19.25 12.2326 19.0237 13.3704 18.5839 14.432C18.1442 15.4936 17.4997 16.4582 16.6872 17.2707C15.8747 18.0832 14.9101 18.7277 13.8485 19.1674C12.7869 19.6072 11.6491 19.8335 10.5 19.8335L10.5 28.5835C12.7981 28.5835 15.0738 28.1309 17.197 27.2514C19.3202 26.3719 21.2494 25.0829 22.8743 23.4578C24.4994 21.8329 25.7884 19.9037 26.6679 17.7805C27.5474 15.6573 28 13.3816 28 11.0835L19.25 11.0835Z" fill="#171717" fill-opacity="0.8"/>
</g>
<defs>
<clipPath id="clip0_18_148">
<rect width="35" height="35" fill="white" transform="translate(10.5 11.0835)"/>
</clipPath>
</defs>
</svg>
