<svg xmlns="http://www.w3.org/2000/svg" width="193" height="24" fill="none" viewBox="0 0 193 24"><path fill="#fefaee" d="M96.194 20.683h-6.467V3.393h6.467zm-5.836-.631h5.204V4.025h-5.204zm14.835.631h-6.337V3.393h13.24a7.94 7.94 0 0 1 5.323 1.5 5.82 5.82 0 0 1 1.868 4.822 6.14 6.14 0 0 1-1.375 4.263c-1.159 1.33-3.086 2.014-5.729 2.038-.666.018-5.654 0-6.986 0zm-5.71-.631h5.078v-4.674h.317c.065 0 6.541.02 7.29 0 2.462-.022 4.232-.632 5.266-1.823a5.55 5.55 0 0 0 1.213-3.841 5.24 5.24 0 0 0-1.642-4.337 7.36 7.36 0 0 0-4.918-1.354h-12.6zm11.271-7.92h-6.236V7.425h6.278a2.67 2.67 0 0 1 2.4.918c.264.439.388.946.356 1.457.024.474-.078.945-.296 1.366a2.74 2.74 0 0 1-2.502.96zm-5.604-.632h5.604c1.036 0 1.678-.216 1.962-.66.157-.324.228-.682.206-1.04a1.96 1.96 0 0 0-.235-1.084l-.007-.011c-.301-.442-.899-.648-1.884-.648h-5.646zm25.663 9.438c-5.671 0-9.056-1.408-10.346-4.304a7.5 7.5 0 0 1-.427-1.736l-.056-.364h6.748l.044.265c.052.27.167.523.334.74.266.323 1.156.863 4.106.863 3.547 0 3.547-.622 3.547-.957 0-.565-.41-.758-3.303-1.066l-.549-.052c-1.089-.102-2.466-.232-3.095-.287-5.305-.48-7.674-2.128-7.674-5.343 0-3.376 4.031-5.558 10.27-5.558 5.089 0 8.368 1.342 9.744 3.99.326.617.545 1.284.648 1.974l.044.354h-6.755l-.028-.285a1.08 1.08 0 0 0-.273-.599c-.253-.338-1.051-.898-3.529-.898-3.043 0-3.463.39-3.463.809 0 .56.962.757 4.042 1.087 1.285.105 3.35.317 4.058.403 4.447.483 6.432 2.09 6.432 5.216.001 2.62-1.824 5.748-10.519 5.748m-10.091-5.772c.063.416.172.825.325 1.217 1.174 2.64 4.37 3.924 9.766 3.924 4.512 0 9.892-.884 9.892-5.117 0-2.77-1.756-4.142-5.872-4.588-.708-.086-2.76-.297-4.042-.403-3.285-.356-4.62-.546-4.62-1.715 0-1.21 1.439-1.44 4.094-1.44 2.098 0 3.454.379 4.028 1.143.157.188.276.405.349.639h5.475a5.7 5.7 0 0 0-.518-1.403c-1.263-2.424-4.349-3.652-9.185-3.652-5.854 0-9.638 1.934-9.638 4.926 0 2.855 2.124 4.265 7.098 4.714.632.055 2.007.185 3.099.288l.553.052c2.687.283 3.871.46 3.871 1.694 0 1.329-1.532 1.589-4.178 1.589-2.448 0-3.994-.368-4.592-1.091a2.3 2.3 0 0 1-.409-.777zm32.61 5.75c-6.594 0-10.232-2.666-10.232-7.509V3.393h6.382v10.014c0 1.661 1.486 2.614 4.077 2.614 2.476 0 4.013-.994 4.013-2.592V3.393h6.316v10.545c.006 4.435-3.845 6.979-10.56 6.979zm-9.6-16.891v9.382c0 5.985 6.01 6.878 9.6 6.878 3.711 0 9.934-.825 9.934-6.347V4.025h-5.052v9.404c0 1.958-1.824 3.223-4.645 3.223-2.948 0-4.709-1.212-4.709-3.245V4.025zm46.92 16.658h-6.023v-7.806l-3.416 7.806h-5.253l-3.38-7.791v7.791h-6.044V3.393h7.95l4.13 9.533 4.33-9.533h7.713zm-5.391-.631h4.759V4.025h-6.672l-4.752 10.457-4.53-10.457h-6.904v16.027h4.781v-10.2l4.421 10.203h4.421l4.468-10.187zM8.229 3.709H2.477v16.658h15.895v-4.435H8.23zm21.754-.38c-7.343 0-11.204 3.48-11.204 8.59 0 5.773 4.053 8.701 11.204 8.701 7.872 0 11.183-3.395 11.183-8.7 0-5.388-3.735-8.593-11.183-8.593zm-.021 4.33q.75-.005 1.495.087l-6.43 6.43a5.1 5.1 0 0 1-.435-2.187c0-2.614 1.316-4.333 5.37-4.333zm.021 8.7q-.724.003-1.441-.08l6.442-6.443c.293.677.433 1.41.41 2.148 0 2.543-1.212 4.373-5.41 4.373zm22.58-2.273h5.92c-.086.41-.268.796-.53 1.124a6.13 6.13 0 0 1-4.372 1.358 5.57 5.57 0 0 1-4.392-1.464 4.7 4.7 0 0 1-.807-2.993 4.6 4.6 0 0 1 .87-3.118c.828-.935 2.229-1.338 4.288-1.338a5.84 5.84 0 0 1 3.713.955c.346.274.604.643.743 1.061h5.491a5.7 5.7 0 0 0-.489-1.995c-1.315-2.674-4.371-4.265-9.57-4.265-4.52 0-7.554 1.38-9.23 3.46a8.3 8.3 0 0 0-1.614 5.199 8.76 8.76 0 0 0 1.577 5.35c1.656 2.146 4.605 3.202 8.15 3.202a10.18 10.18 0 0 0 6.62-1.866l.149 1.611h4.561V10.5H52.563zm24.024-10.76c-7.341 0-11.204 3.48-11.204 8.59 0 5.772 4.052 8.7 11.204 8.7 7.874 0 11.184-3.395 11.184-8.7 0-5.384-3.735-8.589-11.184-8.589m-.02 4.329q.73-.002 1.457.083l-6.406 6.41a5.1 5.1 0 0 1-.42-2.16c-.006-2.613 1.316-4.333 5.37-4.333m.02 8.7a12 12 0 0 1-1.479-.085l6.464-6.465a5 5 0 0 1 .425 2.181c.003 2.54-1.205 4.37-5.41 4.37"/></svg>