<svg xmlns="http://www.w3.org/2000/svg" width="63" height="24" fill="none" viewBox="0 0 63 24"><g fill="#fefaee" clip-path="url(#a)"><path d="M14.994 0a9.2 9.2 0 0 0-6.497 2.691L2.873 8.315a9.188 9.188 0 1 0 12.994 12.994l3.89-3.89L31.091 6.085a4.388 4.388 0 0 1 7.276 1.742l3.577-3.577a9.188 9.188 0 0 0-14.247-1.56L12.473 17.916a4.388 4.388 0 1 1-6.206-6.206l5.624-5.624a4.388 4.388 0 0 1 7.276 1.742l3.577-3.577A9.18 9.18 0 0 0 14.994 0"/><path d="M31.673 17.915a4.388 4.388 0 0 1-7.276-1.742l-3.576 3.577a9.188 9.188 0 0 0 14.247 1.559L50.29 6.085a4.388 4.388 0 0 1 6.206 6.206l-5.624 5.624a4.388 4.388 0 0 1-7.276-1.742L40.02 19.75a9.188 9.188 0 0 0 14.247 1.559l5.624-5.624A9.188 9.188 0 0 0 46.897 2.691z"/></g><defs><clipPath id="a"><path fill="#fff" d="M.182 0h62.4v24H.182z"/></clipPath></defs></svg>