<svg xmlns="http://www.w3.org/2000/svg" width="85" height="24" fill="none" viewBox="0 0 85 24"><path fill="#fefaee" d="M28.64 15.273V5.939h-1.531v9.334zM29.576 12.161c0 1.907 1.28 3.262 3.224 3.262s3.225-1.355 3.225-3.262S34.745 8.9 32.8 8.9c-1.944 0-3.224 1.355-3.224 3.262m1.543 0c0-1.116.665-1.894 1.681-1.894s1.681.778 1.681 1.894c0 1.104-.665 1.895-1.68 1.895-1.017 0-1.682-.79-1.682-1.895M36.54 12.036c0 1.806 1.166 3.111 2.91 3.111.903 0 1.68-.364 2.07-.966v1.054c0 1.016-.64 1.694-1.706 1.694-.954 0-1.606-.464-1.694-1.28h-1.543c.2 1.618 1.443 2.672 3.149 2.672 2.007 0 3.287-1.317 3.287-3.362V9.075h-1.355l-.088.84c-.376-.652-1.154-1.04-2.07-1.04-1.769 0-2.96 1.342-2.96 3.161m1.555-.038c0-1.028.652-1.781 1.618-1.781 1.054 0 1.757.765 1.757 1.781 0 1.03-.703 1.82-1.757 1.82-.953 0-1.618-.778-1.618-1.82M43.77 12.161c0 1.907 1.28 3.262 3.224 3.262s3.225-1.355 3.225-3.262S48.939 8.9 46.994 8.9c-1.944 0-3.224 1.355-3.224 3.262m1.543 0c0-1.116.665-1.894 1.681-1.894s1.681.778 1.681 1.894c0 1.104-.664 1.895-1.68 1.895s-1.682-.79-1.682-1.895M51.875 7.808a.91.91 0 1 0 0-1.82.89.89 0 0 0-.903.905c0 .514.389.915.903.915m-.765 7.465h1.53V9.075h-1.53zM53.981 18.146h1.493V14.42c.39.64 1.23 1.016 2.158 1.016 1.832 0 2.923-1.405 2.898-3.337-.038-1.945-1.154-3.212-2.91-3.212-.941 0-1.794.414-2.17 1.13l-.089-.942h-1.38zm1.556-5.972c0-1.116.677-1.894 1.744-1.894s1.706.79 1.706 1.894-.64 1.882-1.706 1.882c-1.067 0-1.744-.765-1.744-1.882M60.918 13.416c.05 1.23 1.004 2.02 2.484 2.02 1.456 0 2.447-.778 2.447-1.982 0-.891-.552-1.493-1.569-1.744l-1.091-.264c-.464-.125-.778-.288-.778-.69 0-.426.339-.727.89-.727.578 0 .954.326.954.866h1.393c-.05-1.23-.966-2.008-2.308-2.008-1.33 0-2.321.778-2.321 1.957 0 .803.464 1.468 1.656 1.782l1.079.276c.4.113.652.3.652.652 0 .49-.464.715-1.029.715-.677 0-1.066-.313-1.066-.853zM69.024 15.436c.84 0 1.643-.39 2.007-.966l.1.803h1.43V9.075h-1.53v3.25c0 1.116-.426 1.743-1.43 1.743-.778 0-1.317-.376-1.317-1.656V9.075h-1.53v3.877c0 1.48.802 2.484 2.27 2.484M75.443 15.273V11.71c0-1.004.59-1.48 1.317-1.48.728 0 1.204.464 1.204 1.342v3.7h1.493v-3.55c0-1.016.577-1.492 1.305-1.492.74 0 1.217.464 1.217 1.342v3.7h1.48v-4.051c0-1.43-.79-2.334-2.296-2.334-.94 0-1.68.452-1.982 1.18-.338-.728-1.016-1.18-2.045-1.18-.727 0-1.38.339-1.743.89l-.076-.702h-1.405v6.198zM71.773 20.811a.43.43 0 0 0 .426-.42.43.43 0 0 0-.426-.426.433.433 0 0 0-.432.426c0 .228.198.42.432.42M72.64 19.264c0 .918.564 1.535 1.386 1.535.708 0 1.248-.425 1.362-1.061h-.54c-.102.354-.414.564-.786.564-.528 0-.864-.409-.864-1.044 0-.648.354-1.044.876-1.044.36 0 .672.192.768.57h.54c-.096-.642-.6-1.075-1.302-1.075-.852 0-1.44.63-1.44 1.555M75.6 19.257c0 .882.6 1.542 1.5 1.542s1.5-.66 1.5-1.542-.6-1.542-1.5-1.542-1.5.66-1.5 1.542m.57 0c0-.6.366-1.038.93-1.038s.93.438.93 1.038-.366 1.038-.93 1.038-.93-.438-.93-1.038M79.646 20.733V18.97c0-.462.288-.762.708-.762.402 0 .654.258.654.72v1.806h.552v-1.758c0-.468.282-.768.708-.768.396 0 .648.258.648.72v1.806h.546v-1.926c0-.678-.396-1.092-1.068-1.092-.456 0-.81.222-.954.582-.15-.36-.48-.582-.96-.582-.366 0-.69.168-.852.456l-.042-.372h-.504v2.934z"/><path fill="#fefaee" fill-rule="evenodd" d="M1.673 12.237v-.109l.003-.11.003-.109.005-.11.005-.108.007-.11.008-.11.008-.108.01-.11.012-.109.012-.109.013-.11.015-.108.016-.109.016-.109.018-.108.02-.109.02-.108.02-.108.023-.109.023-.107.025-.108.026-.107.027-.108.028-.107.029-.107.03-.106.031-.107.032-.106.034-.105.034-.106.036-.105.037-.105.038-.104.039-.105.04-.104.04-.103.043-.103.043-.103.044-.103.046-.102.046-.101.048-.101.048-.101.05-.1.05-.1.052-.1.053-.099.054-.098.054-.098.056-.098.057-.097.058-.096.059-.096.06-.096.06-.095.063-.094.062-.094.064-.093.065-.092.066-.092.067-.092.067-.09.07-.09.069-.09.07-.089.072-.088.072-.087.074-.087.074-.086.075-.086.076-.084.077-.084.078-.084.08-.082.079-.082.08-.081.082-.08.082-.08.083-.079.084-.078.085-.077.085-.076.087-.076.087-.074.088-.074.089-.073.09-.073.09-.071.09-.07.093-.07.092-.07.094-.067.094-.067.095-.066.095-.065.096-.065.097-.063.098-.063.098-.061.1-.06.099-.06.1-.059.101-.058.102-.056.102-.056.103-.055.103-.054.104-.053.104-.052.106-.05.105-.05.106-.049.107-.048.108-.046.107-.046.109-.045.109-.043.109-.043.11-.042.11-.04.11-.04.112-.038.111-.037.112-.036.113-.035.113-.034.113-.033.113-.032.114-.03.115-.03.114-.029.115-.027.116-.026.115-.025.116-.024.117-.023.116-.022.117-.02.117-.02.117-.018.118-.018.117-.016.118-.015.118-.013.119-.013.118-.011.119-.01.119-.01.119-.008.639-.036.037 3.08h.109l.088.001.088.002.089.002.088.004.089.004.088.005.088.006.089.007.088.008.088.008.089.01.088.01.088.011.088.012.088.013.088.014.088.015.088.015.088.016.087.018.087.018.088.019.087.02.087.02.086.022.087.023.086.023.086.024.086.025.086.026.086.027.085.027.085.029.085.03.084.03.085.03.084.032.083.033.084.034.083.034.083.035.082.036.083.037.081.038.082.038.081.04.08.04.081.04.08.042.08.043.08.043.078.045.078.045.078.045.078.047.077.047.077.048.076.05.076.049.075.05.075.052.074.052.074.052.073.054.073.054.072.055.072.056.071.056.071.057.07.058.07.059.069.059.068.06.068.06.067.062.067.062.066.063.065.063.065.065.064.064.064.066.063.066.062.067.062.067.06.068.061.069.06.07.058.07.059.07.057.07.057.073.056.072.056.073.054.073.054.075.054.074.052.075.052.076.05.076.051.077.05.078.048.078.048.078.047.079.047.08.045.08.045.08.044.08.043.082.042.082.042.082.04.083.04.083.04.083.038.084.037.085.037.085.035.085.035.085.034.086.033.087.032.087.031.087.03.087.03.088.03.088.027.088.027.09.026.088.025.09.024.09.023.09.023.09.021.09.02.09.02.092.019.09.018.092.016.092.016.092.015.092.014.092.013.092.012.093.012.093.01.093.01.093.008.093.007.093.006.094.006.093.004.094.004.093.003.094.001.094v.282l-.003.094-.003.094-.004.094-.005.094-.006.095-.007.094-.008.094-.01.094-.01.094-.01.094-.012.093-.013.094-.014.094-.015.094-.015.093-.017.093-.018.094-.018.093-.02.093-.02.093-.022.092-.023.093-.023.092-.025.092-.025.092-.026.092-.028.091-.028.092-.03.09-.03.092-.03.09-.032.09-.033.09-.034.09-.035.09-.036.09-.037.088-.037.088-.039.089-.04.088-.04.087-.041.087-.042.087-.044.087-.044.085-.045.086-.045.085-.047.085-.048.085-.048.084-.05.083-.05.083-.051.083-.052.082-.053.082-.054.081-.055.08-.055.081-.056.08-.058.079-.058.079-.058.078-.06.078-.06.076-.062.077-.062.076-.063.075-.064.075-.064.074-.066.074-.066.073-.067.072-.067.072-.069.071-.069.07-.07.07-.07.07-.072.068-.072.068-.073.067-.074.066-.074.066-.075.065-.076.065-.076.063-.077.063-.078.062-.079.062-.079.06-.08.06-.08.06-.081.058-.082.058-.082.057-.083.056-.084.055-.084.055-.085.054-.085.053-.086.052-.087.051-.087.05-.087.05-.088.049-.09.048-.088.047-.09.046-.09.046-.091.044-.092.044-.091.043-.093.041-.093.041-.093.04-.093.04-.095.038-.094.038-.095.036-.095.036-.096.034-.096.034-.097.033-.097.032-.097.03-.098.03-.098.03-.098.028-.099.027-.099.026-.1.026-.099.024-.1.023-.1.022-.1.022-.101.02-.101.02-.102.018-.101.017-.102.017-.102.015-.102.015-.102.013-.103.013-.102.011-.103.01-.103.01-.103.009-.104.007-.103.007-.103.005-.104.005-.104.003-.103.002-.104.002h-.208l-.104-.002-.104-.003-.104-.004-.104-.005-.104-.005-.104-.007-.104-.008-.104-.009-.104-.01-.104-.01-.104-.012-.103-.013-.104-.014-.103-.015-.104-.016-.103-.017-.103-.018-.103-.02-.103-.02-.103-.02-.102-.023-.103-.023-.102-.024-.102-.025-.101-.026-.102-.027-.101-.029-.101-.029-.1-.03-.101-.031-.1-.032-.1-.033-.1-.035-.1-.035-.098-.036-.1-.037-.097-.038-.098-.04-.098-.04-.097-.04-.097-.042-.097-.043-.096-.044-.095-.045-.096-.046-.095-.047-.094-.048-.094-.049-.093-.05-.093-.05-.093-.051-.092-.053-.091-.053-.091-.055-.09-.055-.09-.056-.09-.057-.09-.058-.088-.059-.087-.06-.088-.06-.086-.061-.086-.063-.086-.063-.084-.064-.085-.065-.083-.066-.083-.067-.082-.067-.082-.069-.08-.069-.081-.07-.08-.07-.078-.072-.079-.072-.077-.074-.077-.074-.076-.075-.075-.075-.075-.077-.073-.077-.073-.077-.073-.079-.071-.08-.07-.08-.07-.08-.07-.082-.068-.082-.068-.083-.066-.084-.066-.084-.065-.085-.064-.086-.064-.086-.062-.087-.062-.088-.06-.088-.06-.089-.059-.09-.058-.09-.057-.09-.056-.091-.056-.092-.054-.093-.054-.093L3 17.424l-.052-.094-.05-.095-.05-.095-.049-.096-.048-.096-.046-.097-.046-.097-.045-.098-.044-.098-.043-.1-.042-.098-.04-.1-.04-.1-.04-.1-.037-.102-.037-.101-.036-.102-.035-.102-.033-.103-.033-.103-.032-.103-.03-.104-.03-.104-.028-.104-.028-.105-.026-.104-.026-.106-.024-.105-.023-.106-.022-.106-.021-.107-.02-.106-.02-.107-.017-.107-.017-.107-.015-.108-.015-.108-.013-.108-.012-.108-.012-.108-.01-.108-.009-.109-.007-.108-.007-.11-.006-.108-.004-.109-.004-.11-.002-.108-.001-.11zm10.57-8-.025-2.1-.024.002-.108.011-.109.013-.108.013-.107.015-.108.016-.107.017-.107.017-.108.02-.106.02-.107.02-.105.022-.107.023-.105.024-.105.025-.105.026-.105.027-.104.028-.104.03-.104.03-.103.03-.103.033-.103.033-.102.034-.101.035-.102.036-.1.037-.101.038-.1.04-.1.039-.099.04-.098.043-.098.042-.098.044-.097.045-.097.045-.096.047-.096.047-.095.048-.094.05-.094.05-.094.05-.093.053-.092.053-.091.053-.092.055-.09.055-.09.056-.09.057-.088.058-.088.06L7.103 4l-.087.06-.086.061-.085.062-.085.063-.084.064-.083.064-.083.066-.081.066-.082.067-.08.067-.08.068-.078.07-.079.07-.077.07-.077.07-.076.073-.075.072-.074.074-.074.074-.073.075-.071.075-.072.076-.07.077-.07.077-.068.078-.068.079-.067.079-.066.08-.065.08-.065.081-.063.082-.063.082-.062.083-.06.083-.061.084-.06.085-.057.085-.058.085-.056.086-.056.087-.054.087-.054.088-.053.088-.052.088-.05.09-.05.088-.05.09-.048.09-.047.091-.046.091-.046.092-.044.092-.043.092-.043.093-.04.093-.041.093-.04.094-.038.094-.038.095-.036.094-.036.095-.034.096-.034.095-.032.096-.032.096-.03.097-.03.096-.028.097-.028.097-.026.098-.026.097-.024.098-.023.098-.023.098-.021.098-.02.099-.02.098-.018.1-.018.098-.016.099-.015.1-.014.098-.014.1-.012.099-.011.1-.01.099-.01.1-.008.099-.007.1-.006.099-.005.1-.004.099-.003.1-.002.1v.297l.003.1.003.1.004.098.005.1.006.098.007.1.008.098.01.099.01.098.011.098.012.099.013.098.015.097.015.098.016.097.017.098.018.097.02.096.02.097.02.096.023.096.023.096.024.095.025.095.026.095.026.095.028.094.03.094.029.093.03.094.032.093.033.092.033.092.035.092.035.091.036.091.037.091.038.09.04.09.04.09.04.088.042.089.042.088.043.087.045.087.045.087.046.086.047.085.047.085.049.085.05.084.05.084.05.082.053.083.052.082.054.081.054.08.055.08.056.08.057.08.057.078.058.078.06.077.06.076.06.076.06.075.063.075.063.074.063.073.064.073.065.072.066.071.066.07.067.07.067.07.069.069.069.068.07.067.07.066.07.066.072.065.072.064.073.063.073.063.074.062.075.061.075.06.076.06.076.06.077.057.077.058.078.056.079.056.079.055.08.054.08.053.08.053.081.052.082.05.082.05.082.05.083.048.083.048.084.046.084.046.085.045.085.044.086.043.085.043.087.041.086.041.087.04.088.039.087.038.088.037.089.036.089.036.089.034.089.034.09.033.09.032.09.03.09.03.09.03.092.028.09.027.092.026.092.026.092.025.092.023.092.023.092.022.093.02.093.02.093.02.093.018.093.017.093.017.093.015.094.014.094.014.093.013.094.011.094.01.094.01.094.01.094.008.094.007.093.006.095.005.094.004.093.004.095.002.094.002h.187l.094-.001.094-.002.093-.004.094-.003.094-.005.093-.006.093-.007.093-.008.093-.008.093-.01.093-.01.092-.011.093-.012.092-.014.092-.013.092-.015.091-.016.092-.017.09-.017.092-.019.09-.019.091-.02.09-.021.09-.022.09-.023.09-.023.088-.025.089-.025.088-.026.088-.028.088-.027.088-.03.087-.029.087-.03.086-.032.086-.032.086-.033.085-.033.085-.035.084-.035.084-.036.084-.037.083-.038.083-.039.082-.04.082-.04.081-.04.081-.042.08-.042.08-.043.08-.044.079-.045.078-.046.078-.046.078-.047.077-.047.076-.049.076-.049.075-.05.075-.05.074-.052.074-.052.073-.052.072-.054.072-.054.071-.054.071-.056.07-.056.07-.056.068-.058.069-.058.067-.058.067-.06.066-.06.066-.06.065-.06.064-.062.064-.062.063-.063.062-.064.061-.064.061-.064.06-.065.06-.066.058-.066.059-.067.057-.067.056-.068.056-.068.055-.069.055-.07.053-.069.053-.07.053-.07.051-.072.05-.072.05-.072.05-.072.048-.073.047-.074.047-.074.046-.074.045-.075.045-.075.043-.075.043-.076.042-.076.041-.077.04-.077.04-.077.039-.077.038-.078.037-.079.036-.078.036-.08.034-.078.034-.08.033-.08.032-.08.032-.08.03-.08.03-.081.029-.082.027-.08.027-.082.027-.082.025-.082.024-.082.024-.082.023-.083.022-.082.02-.083.021-.083.02-.083.018-.084.017-.083.017-.084.016-.083.015-.084.014-.084.013-.084.013-.084.011-.084.011-.084.01-.084.009-.084.008-.085.007-.084.006-.084.006-.084.004-.085.004-.084.003-.084.002-.084v-.085l.001-.084v-.084l-.002-.084-.002-.084-.004-.084-.003-.084-.005-.084-.006-.083-.007-.084-.007-.083-.009-.083-.009-.084-.01-.083-.01-.082-.012-.083-.013-.083-.013-.082-.014-.082-.015-.082-.016-.082-.017-.082-.018-.081-.018-.081-.02-.081-.02-.08-.02-.081-.022-.08-.022-.08-.023-.08-.024-.08-.025-.078-.026-.08-.026-.077-.027-.079-.028-.078-.03-.077-.029-.077-.03-.077-.031-.077-.032-.076-.032-.075-.034-.076-.034-.075-.035-.075-.035-.074-.037-.074-.037-.073-.038-.073-.038-.073-.04-.072-.04-.072-.04-.071-.042-.071-.042-.07-.042-.07-.044-.07-.044-.07-.045-.068-.045-.068-.046-.067-.047-.068-.048-.066-.048-.066-.049-.066-.05-.065-.05-.064-.05-.064-.051-.064-.052-.063-.053-.062-.053-.062-.054-.061-.054-.06-.055-.061-.056-.06-.055-.058-.057-.059-.057-.058-.058-.057-.058-.056-.06-.056-.059-.056-.06-.054-.06-.054-.06-.054-.062-.053-.062-.052-.063-.051-.063-.051-.063-.05-.064-.05-.064-.05-.065-.047-.066-.048-.065-.047-.067-.046-.066-.046-.067-.045-.067-.044-.068-.043-.069-.043-.068-.042-.07-.042-.069-.04-.07-.04-.07-.04-.07-.038-.07-.038-.072-.037-.072-.037-.071-.036-.073-.035-.072-.034-.073-.033-.073-.033-.073-.032-.076-.032-.072-.03-.074-.03-.074-.029-.075-.028-.075-.028-.075-.027-.075-.026-.076-.025-.076-.024-.076-.024-.076-.023-.076-.022-.077-.022-.077-.02-.076-.02-.077-.02-.078-.018-.077-.018-.077-.017-.078-.016-.078-.015-.077-.015-.078-.014-.078-.013-.078-.012-.078-.011-.078-.011-.079-.01-.078-.01-.078-.007-.079-.008-.078-.007-.078-.006-.079-.005-.078-.005-.078-.003-.079-.003-.078-.003-.079-.001h-.172l.025 2.084h.102l.057.001.057.002.057.002.058.002.057.004.057.003.058.005.057.005.058.005.057.006.057.007.058.007.057.007.057.009.057.009.057.009.058.01.057.01.057.012.057.012.056.012.057.013.057.013.057.014.056.015.056.015.057.016.056.016.056.017.056.017.056.018.055.019.056.019.055.02.055.02.055.02.055.022.055.022.054.022.055.023.054.024.054.024.053.025.054.025.053.026.053.026.053.027.052.028.053.027.052.029.052.029.051.03.052.03.05.03.051.031.05.032.05.032.05.033.05.033.05.034.049.034.048.035.049.035.048.036.047.037.048.036.047.038.046.037.047.039.046.039.045.039.045.04.045.04.045.04.044.041.043.042.044.042.043.043.042.043.042.043.042.044.04.044.042.045.04.045.04.046.04.046.039.047.038.046.038.048.038.047.037.049.037.048.036.05.036.048.035.05.035.05.035.05.033.052.034.051.032.052.033.052.032.052.031.053.03.053.031.053.03.054.029.054.029.054.028.055.027.055.027.055.027.056.026.056.025.056.025.057.024.057.024.057.023.057.023.058.021.057.022.059.02.058.02.059.02.059.02.059.018.06.018.059.017.06.017.06.016.06.015.06.015.061.014.06.014.062.013.061.012.062.012.061.01.062.011.062.01.062.01.062.008.062.008.063.007.062.006.063.006.062.006.063.005.063.004.063.003.063.003.064.002.063.001.063.001.064v.127l-.001.063-.002.064-.003.063-.003.064-.003.064-.005.064-.005.063-.006.064-.006.063-.007.064-.008.064-.008.063-.01.064-.009.063-.01.064-.011.063-.012.063-.012.064-.013.063-.014.063-.014.063-.015.063-.016.063-.016.062-.017.063-.018.062-.018.063-.02.062-.019.062-.02.062-.02.062-.023.061-.022.061-.022.062-.024.06-.024.062-.025.06-.025.06-.026.061-.027.06-.027.06-.028.06-.029.059-.03.059-.029.059-.03.058-.032.059-.031.058-.033.058-.033.057-.033.057-.034.057-.035.057-.036.056-.036.056-.036.056-.038.056-.037.055-.039.054-.039.055-.04.054-.04.054-.04.053-.042.053-.041.052-.043.053-.043.051-.044.052-.044.051-.044.05-.046.051-.046.05-.046.05-.047.048-.047.049-.048.048-.049.048-.049.047-.05.047-.05.046-.05.046-.051.045-.052.045-.052.045-.052.044-.053.043-.054.043-.054.043-.054.042-.055.041-.056.041-.056.04-.056.04-.057.04-.057.039-.058.038-.058.038-.058.037-.06.037-.059.036-.06.036-.06.035-.06.034-.061.034-.061.034-.062.032-.062.032-.063.032-.062.03-.064.031-.063.03-.064.029-.064.029-.065.027-.065.028-.065.026-.066.027-.066.025-.066.025-.066.024-.067.023-.067.023-.068.022-.067.022-.068.021-.068.02-.069.02-.068.019-.07.018-.068.018-.07.017-.07.016-.069.016-.07.015-.07.014-.07.013-.07.013-.072.012-.07.012-.072.01-.07.011-.072.01-.072.008-.071.008-.072.008-.072.006-.072.006-.072.005-.072.005-.073.004-.072.003-.073.002-.072.002h-.073l-.072.001h-.073l-.073-.001-.073-.002-.072-.003-.073-.003-.073-.004-.073-.005-.073-.005-.073-.007-.072-.007-.073-.007-.073-.009-.073-.009-.072-.01-.073-.01-.073-.011-.072-.012-.073-.013-.072-.013-.072-.014-.072-.015-.072-.016-.072-.016-.072-.017-.072-.018-.071-.018-.072-.02-.07-.02-.072-.02-.07-.021-.071-.022-.071-.023-.07-.023-.07-.024-.07-.025-.07-.026-.07-.026-.069-.027-.069-.027-.069-.029-.068-.029-.069-.03-.068-.03-.068-.031-.067-.032-.067-.032-.067-.033-.067-.034-.066-.035-.066-.035-.066-.036-.065-.036-.065-.037-.065-.038-.064-.039-.064-.039-.064-.04-.063-.04-.063-.041-.062-.042-.062-.042-.062-.043-.061-.044-.061-.044-.06-.045-.06-.046-.06-.046-.06-.047-.058-.047-.058-.048-.058-.049-.057-.049-.057-.05-.057-.05-.055-.05-.056-.052-.055-.052-.054-.053-.054-.053-.053-.054-.053-.054-.053-.055-.051-.056-.052-.056-.05-.056-.05-.057-.05-.058-.05-.058-.048-.059-.048-.059-.047-.06-.047-.06-.046-.06-.045-.061-.045-.062-.045-.062-.043-.063-.044-.063-.042-.063-.042-.064-.041-.065-.04-.065-.04-.065-.04-.066-.039-.066-.038-.066-.037-.067-.037-.067-.036-.068-.035-.069-.035-.068-.034-.069-.033-.07-.032-.069-.032-.07-.031-.07-.03-.071-.03-.071-.03-.072-.028-.071-.028-.072-.027-.073-.026-.073-.025-.073-.025-.073-.024-.073-.023-.074-.022-.074-.022-.075-.021-.074-.02-.075-.02-.075-.018-.076-.018-.075-.018-.076-.016-.076-.016-.076-.014-.077-.014-.077-.014-.076-.012-.077-.012-.077-.01-.078-.011-.077-.01-.078-.008-.077-.008-.078-.007-.078-.006-.078-.005-.079-.005-.078-.004-.078-.003-.079-.002-.078-.001-.079v-.236l.002-.079.003-.079.004-.079.004-.078.005-.08.006-.078.007-.079.007-.079.009-.078.009-.08.01-.078.01-.079.012-.078.013-.079.013-.078.014-.078.015-.079.016-.078.016-.078.018-.078.018-.078.019-.077.02-.078.02-.077.021-.077.022-.077.023-.077.024-.077.025-.076.025-.077.026-.076.027-.076.028-.075.029-.076.029-.075.03-.075.031-.074.032-.075.032-.074.033-.074.035-.073.034-.074.036-.073.036-.072.037-.073.038-.072.039-.072.04-.07.04-.072.04-.07.042-.07.043-.07.043-.07.044-.07.044-.068.046-.069.046-.068.046-.067.048-.067.048-.067.05-.066.049-.066.05-.065.051-.065.052-.065.052-.064.054-.063.053-.063.055-.063.055-.062.056-.061.056-.061.058-.06.057-.06.059-.06.059-.059.06-.058.06-.058.06-.057.063-.056.062-.056.063-.056.063-.055.064-.054.065-.054.065-.053.066-.052.066-.052.067-.051.067-.05.068-.05.069-.05.07-.049.069-.048.07-.047.07-.047.072-.046.072-.045.072-.045.073-.044.073-.043.074-.043.074-.042.075-.04.075-.041.075-.04.076-.039.077-.038.077-.038.077-.037.078-.036.078-.035.079-.035.079-.033.079-.034.08-.032.08-.031.08-.031.081-.03.081-.03.082-.028.082-.028.082-.026.083-.027.082-.025.083-.024.084-.024.084-.023.084-.022.084-.021.084-.02.085-.02.085-.019.085-.018.086-.017.086-.016.086-.016.086-.015.086-.013.087-.013.086-.012.087-.012zm.036 3.092-.025-2.108-.071.01-.077.011-.076.013-.076.013-.076.013-.076.015-.076.015-.075.016-.075.016-.076.018-.074.018-.075.019-.074.02-.072.019-.076.021-.074.022-.073.022-.073.023-.073.024-.072.025-.072.025-.072.026-.071.026-.071.027-.071.028-.07.029-.07.03-.07.029-.07.03-.069.032-.069.032-.068.032-.068.033-.068.034-.067.035-.066.035-.067.035-.066.037-.065.037-.065.037-.065.039-.064.038-.064.04-.063.04-.063.04-.063.042-.061.041-.062.043-.061.043-.06.043-.06.044-.06.045-.06.045-.058.046-.058.046-.057.047-.057.047-.056.048-.056.048-.056.05-.055.048-.054.05-.054.05-.053.052-.052.05-.052.053-.052.052-.05.053-.051.053-.05.054-.05.054-.048.055-.048.055-.047.055-.047.056-.046.056-.046.057-.044.057-.045.058-.043.057-.044.059-.042.058-.042.06-.041.059-.04.06-.04.06-.04.06-.038.061-.038.061-.037.062-.037.062-.036.062-.035.062-.035.063-.034.063-.033.063-.033.064-.032.064-.031.064-.03.064-.03.065-.03.065-.028.065-.028.065-.027.066-.027.065-.026.066-.025.067-.024.066-.024.067-.023.066-.022.067-.022.068-.02.067-.02.067-.02.068-.019.067-.018.068-.017.068-.017.069-.016.068-.015.068-.014.069-.014.068-.013.069-.012.068-.012.069-.011.069-.01.069-.01.069-.008.069-.008.069-.008.069-.006.069-.006.069-.006.069-.004.069-.004.069-.003.069-.002.069-.002.069v.069l-.001.069v.069l.002.068.002.069.002.069.004.068.004.069.004.068.006.068.006.069.007.068.007.068.008.068.01.067.009.068.01.067.01.068.012.067.013.067.013.066.013.067.015.066.015.067.015.066.017.065.017.066.017.065.018.066.02.064.02.065.02.065.02.064.022.064.022.064.023.063.023.063.024.063.025.063.025.062.026.062.027.061.027.062.028.061.028.06.03.061.029.06.03.06.03.06.032.059.032.058.033.059.033.057.033.058.035.057.035.057.035.057.036.056.036.056.037.055.038.055.038.054.038.054.04.054.04.053.04.053.04.052.041.052.042.051.042.051.043.05.043.05.043.05.044.05.045.048.045.049.046.047.045.048.047.046.047.047.047.045.048.046.048.044.048.045.05.043.049.043.05.043.05.042.05.042.051.041.051.04.052.04.052.04.053.04.052.038.054.037.053.038.054.037.054.036.055.035.054.035.056.035.055.034.056.033.056.033.056.032.057.032.057.03.057.031.057.03.058.03.058.028.058.028.059.028.058.027.06.026.058.026.06.025.06.024.059.024.06.024.06.022.06.023.06.021.062.02.06.021.061.02.061.019.062.018.061.018.062.017.061.017.062.016.062.015.062.015.062.014.063.013.062.013.062.012.063.012.062.01.063.01.062.01.063.01.063.008.063.008.062.007.063.007.063.006.063.005.063.005.062.004.063.003.063.003.063.003.063.001.062.001h.188l.063-.002.062-.002.062-.003.063-.003.062-.004.062-.005.062-.005.062-.005.062-.007.061-.007.062-.007.061-.008.061-.009.062-.01.06-.01.061-.01.061-.01.06-.012.06-.013.061-.012.06-.014.06-.014.06-.015.059-.015.059-.015.059-.017.059-.017.058-.017.058-.018.058-.018.058-.02.058-.02.057-.02.057-.02.057-.021.056-.022.057-.022.056-.023.055-.024.056-.024.055-.024.055-.025.054-.026.054-.026.054-.026.054-.027.053-.028.053-.028.053-.028.052-.03.052-.029.051-.03.051-.03.051-.031.05-.032.05-.032.05-.032.05-.033.049-.033.048-.034.049-.034.047-.035.048-.035.047-.035.046-.036.046-.036.046-.037.046-.037.045-.038.044-.038.044-.038.044-.039.043-.04.043-.039.042-.04.042-.04.041-.04.041-.042.04-.041.04-.042.04-.042.04-.043.038-.043.038-.043.038-.044.037-.043.037-.045.036-.044.036-.045.035-.045.035-.046.034-.045.034-.047.033-.046.032-.047.033-.046.031-.048.032-.047.03-.048.03-.048.03-.048.03-.048.028-.05.028-.048.027-.05.027-.049.027-.05.026-.05.025-.05.025-.05.024-.05.024-.05.023-.051.023-.051.022-.052.022-.05.02-.052.021-.052.02-.052.02-.052.018-.052.019-.052.017-.053.018-.052.016-.053.016-.053.016-.052.015-.053.014-.053.014-.054.013-.053.013-.053.012-.054.012-.053.01-.054.011-.053.01-.054.01-.054.008-.053.008-.054.008-.054.007-.054.007-.053.006-.054.005-.054.005-.054.004-.054.004-.054.003-.053.003-.054.002-.054.001-.054.001-.053v-.162l-.001-.053-.002-.053-.003-.054-.002-.053-.004-.053-.004-.053-.004-.053-.005-.053-.006-.053-.006-.053-.007-.053-.007-.052-.008-.053-.008-.052-.009-.052-.01-.052-.009-.052-.01-.052-.011-.051-.012-.052-.012-.05-.012-.052-.013-.05-.014-.051-.014-.051-.014-.05-.015-.05-.016-.05-.016-.05-.016-.05-.017-.05-.018-.048-.017-.05-.019-.048-.019-.048-.02-.048-.02-.049-.02-.047-.02-.048-.022-.047-.022-.047-.022-.047-.023-.046-.023-.046-.023-.046-.024-.046-.025-.045-.025-.045-.025-.045-.026-.045-.026-.044-.027-.043-.027-.044-.027-.043-.028-.043-.029-.043-.029-.042-.029-.042-.03-.042-.03-.041-.03-.041-.03-.04-.032-.041-.03-.04-.033-.04-.032-.039-.033-.039-.033-.038-.033-.038-.034-.038-.034-.037-.035-.038-.034-.036-.035-.037-.036-.035-.036-.036-.036-.035-.036-.035-.037-.034-.037-.034-.038-.034-.037-.033-.038-.033-.039-.032-.038-.032-.04-.031-.038-.031-.04-.031-.04-.03-.04-.03-.04-.03-.04-.028-.04-.029-.042-.028-.041-.028-.042-.027-.041-.027-.043-.026-.042-.026-.042-.026-.043-.024-.043-.025-.043-.024-.043-.024-.044-.023-.043-.023-.044-.022-.044-.022-.044-.022-.045-.02-.044-.021-.045-.02-.045-.02-.045-.019-.045-.018-.046-.019-.045-.017-.046-.018-.045-.016-.046-.017-.046-.015-.046-.016-.046-.015-.047-.014-.046-.014-.047-.014-.046-.013-.047-.012-.047-.012-.046-.012-.047-.011-.047-.01-.047-.01-.047-.01-.048-.01-.047-.008-.047-.009-.047-.008-.047-.007-.048-.007-.047-.006-.047-.006-.048-.005-.047-.005-.047-.005-.048-.004-.047-.003-.047-.003-.048-.003-.047-.002-.047-.002-.047-.001h-.047l-.047-.001h-.033l.025 2.06h.068l.028.001.027.002.027.001.027.002.027.002.028.002.027.003.027.003.028.003.027.003.027.004.028.004.027.005.028.004.027.005.027.005.028.006.027.006.027.006.028.006.027.007.027.007.027.007.027.007.028.008.027.008.027.009.027.008.027.01.027.009.027.01.026.01.027.01.027.01.026.01.027.011.026.012.027.011.026.012.026.012.026.013.027.013.025.013.026.013.026.014.026.014.025.014.026.014.025.015.025.015.025.015.025.016.025.016.024.016.025.016.024.017.025.017.024.017.024.018.024.017.023.018.024.019.023.018.023.02.024.018.022.02.023.02.023.02.022.02.022.02.022.02.022.022.021.02.022.022.021.022.021.022.021.022.02.022.021.023.02.023.02.023.02.024.02.023.019.024.019.024.019.025.018.024.019.025.018.025.018.025.018.026.017.025.017.026.017.026.017.027.016.026.017.027.016.027.015.027.016.027.015.028.015.028.014.027.014.029.015.028.013.028.014.03.013.028.013.029.013.03.012.028.012.03.012.03.011.03.011.03.011.03.01.03.011.03.01.03.01.032.009.03.009.032.008.03.009.032.008.031.008.032.007.032.007.031.007.033.006.031.006.033.006.032.006.032.005.033.005.032.004.033.004.033.004.032.003.033.003.033.003.033.002.033.003.034.001.033.002.033v.034l.001.033v.134l-.002.034-.001.034-.002.033-.003.034-.002.034-.003.034-.003.034-.004.033-.004.034-.004.034-.005.034-.005.034-.005.034-.006.033-.006.034-.007.034-.007.034-.007.034-.008.033-.008.034-.008.034-.009.033-.009.034-.01.033-.01.034-.01.033-.01.034-.01.033-.012.033-.012.033-.012.033-.012.033-.013.033-.013.033-.014.033-.013.033-.014.032-.015.033-.015.032-.015.032-.016.032-.016.032-.016.032-.017.032-.017.032-.017.031-.018.032-.018.03-.019.032-.018.031-.02.03-.02.031-.019.031-.02.03-.02.03-.022.03-.02.03-.022.03-.022.03-.023.029-.022.03-.023.028-.023.029-.024.028-.024.029-.024.028-.025.028-.024.027-.026.028-.025.027-.026.027-.026.027-.027.027-.026.026-.027.026-.028.026-.028.026-.028.025-.028.025-.028.025-.03.025-.029.024-.03.025-.029.024-.03.023-.03.023-.03.024-.032.022-.03.023-.032.022-.032.022-.032.022-.032.02-.033.022-.033.02-.033.021-.033.02-.034.02-.033.02-.034.019-.035.019-.034.018-.035.018-.035.018-.035.018-.035.017-.036.017-.036.017-.036.016-.036.016-.037.015-.037.016-.036.015-.038.014-.037.014-.037.014-.038.014-.038.013-.038.012-.038.013-.039.012-.038.011-.04.012-.038.01-.039.011-.04.01-.039.01-.04.01-.039.008-.04.009-.04.008-.04.008-.04.007-.04.007-.04.007-.041.006-.04.006-.042.005-.04.006-.041.004-.041.004-.042.004-.041.003-.041.004-.042.002-.041.002-.042.002-.041.002H12.4l-.042.001h-.125l-.042-.002-.042-.002-.042-.001-.042-.003-.042-.003-.042-.003-.042-.003-.043-.005-.042-.004-.042-.005-.042-.005-.042-.006-.042-.006-.042-.007-.042-.007-.042-.008-.042-.007-.042-.009-.042-.008-.042-.01-.041-.01-.042-.01-.042-.01-.042-.01-.041-.012-.042-.012-.04-.012-.042-.012-.041-.014-.042-.013-.04-.014-.042-.014-.04-.015-.041-.015-.04-.016-.041-.015-.04-.017-.04-.017-.041-.017-.04-.018-.04-.018-.04-.018-.04-.02-.038-.018-.04-.02-.039-.02-.039-.02-.038-.022-.039-.021-.038-.022-.039-.022-.037-.023-.038-.023-.038-.023-.037-.024-.037-.024-.037-.025-.037-.025-.037-.025-.036-.026-.036-.026-.036-.026-.036-.027-.035-.027-.035-.028-.035-.028-.035-.029-.034-.028-.034-.03-.034-.03-.033-.03-.034-.03-.033-.03-.032-.031-.033-.031-.032-.032-.032-.032-.031-.033-.032-.032-.03-.033-.031-.034-.03-.034-.03-.034-.03-.034-.03-.035-.028-.035-.029-.036-.028-.035-.028-.036-.028-.037-.027-.036-.027-.037-.027-.038-.026-.037-.026-.038-.025-.039-.025-.038-.025-.039-.024-.039-.024-.04-.024-.039-.023-.04-.023-.04-.022-.04-.022-.041-.022-.04-.021-.042-.021-.042-.02-.041-.02-.042-.02-.043-.02-.042-.018-.042-.018-.043-.018-.044-.017-.043-.018-.043-.016-.044-.016-.044-.016-.044-.015-.045-.015-.044-.014-.045-.014-.045-.014-.045-.013-.045-.012-.046-.012-.046-.012-.045-.011-.046-.01-.046-.011-.047-.01-.046-.01-.047-.008-.046-.008-.047-.008-.047-.008-.047-.006-.048-.007-.047-.006-.047-.005-.048-.005-.048-.005-.047-.004-.048-.003-.048-.003-.048-.003-.048-.002-.048-.001-.048-.001-.049v-.193l.002-.049.002-.048.003-.049.003-.048.003-.049.004-.049.005-.048.005-.049.005-.048.006-.049.007-.049.007-.048.008-.049.008-.048.008-.048.01-.049.01-.048.01-.049.01-.048.011-.048.012-.048.012-.048.013-.048.013-.048.014-.048.014-.048.014-.047.016-.048.015-.047.017-.048.016-.047.018-.047.017-.047.019-.047.018-.047.02-.046.02-.046.02-.047.02-.046.022-.046.021-.046.023-.045.022-.046.023-.045.024-.045.024-.045.025-.044.025-.045.026-.044.026-.044.027-.044.027-.043.027-.044.028-.043.029-.043.029-.042.03-.043.03-.042.03-.042.03-.041.032-.041.031-.042.032-.04.033-.04.033-.041.034-.04.034-.04.034-.039.035-.039.035-.039.036-.038.036-.038.037-.038.037-.037.037-.037.038-.037.038-.036.039-.036.039-.036.04-.036.04-.035.04-.034.04-.034.041-.034.042-.034.042-.033.042-.033.042-.032.043-.032.043-.032.044-.03.044-.032.045-.03.044-.03.045-.03.046-.028.046-.03.046-.027.046-.028.047-.028.047-.027.048-.026.047-.026.048-.026.049-.025.048-.025.05-.024.048-.024.05-.023.05-.023.05-.022.05-.022.05-.021.052-.021.05-.02.052-.02.052-.02.052-.02.052-.018.052-.018.053-.017.053-.017.053-.016.053-.016.054-.016.053-.015.054-.014.054-.014.055-.013.054-.013.055-.012.054-.012.055-.011.056-.011zm.678 3.96-.63.15-.036-3.114-.03.006-.044.011-.045.01-.044.012-.044.012-.044.012-.044.013-.044.013-.043.014-.043.013-.043.015-.043.014-.043.015-.042.016-.043.016-.041.016-.042.017-.042.017-.041.018-.041.017-.041.019-.041.018-.04.02-.04.019-.04.02-.04.02-.04.02-.039.021-.039.021-.038.022-.039.022-.038.022-.038.023-.037.023-.037.023-.038.024-.036.024-.037.024-.036.025-.036.025-.035.025-.035.026-.035.026-.035.026-.034.027-.034.027-.034.027-.033.027-.033.028-.033.028-.032.029-.032.028-.032.03-.031.029-.031.03-.03.029-.031.03-.03.03-.03.03-.029.032-.029.03-.029.032-.028.032-.028.032-.027.032-.027.032-.027.032-.026.033-.026.033-.026.033-.025.034-.025.033-.025.034-.024.034-.024.034-.023.035-.023.034-.022.035-.023.035-.022.035-.02.035-.022.036-.02.035-.021.036-.02.036-.02.036-.018.036-.019.037-.018.036-.018.037-.018.037-.017.037-.016.037-.017.037-.016.037-.015.037-.015.038-.015.037-.014.038-.014.038-.013.038-.013.038-.013.038-.012.038-.012.038-.011.038-.011.039-.01.038-.01.038-.01.039-.01.038-.009.039-.008.039-.008.038-.008.039-.008.038-.006.04-.007.038-.006.039-.006.039-.005.038-.005.04-.004.038-.004.039-.004.038-.003.039-.003.039-.002.038-.002.04-.002.038v.038l-.002.039v.115l.001.039.001.038.002.038.002.038.002.038.003.038.003.038.004.038.004.038.004.038.005.037.005.038.005.037.006.038.006.037.007.037.007.037.007.037.008.036.008.037.009.036.008.037.01.036.01.036.01.036.01.036.01.035.011.036.011.035.012.035.012.035.012.035.013.035.013.034.014.034.013.035.014.034.015.033.015.034.015.033.015.033.016.033.016.033.016.033.017.032.017.032.017.032.018.032.017.031.019.032.018.03.019.031.019.031.02.03.019.03.02.03.02.03.02.03.021.029.021.029.022.028.021.029.022.028.022.028.023.027.022.028.023.027.023.027.024.026.023.027.024.026.024.026.024.025.025.025.025.025.025.025.025.024.025.024.026.024.026.024.026.023.026.023.027.022.026.023.027.022.027.022.027.021.028.021.027.02.028.021.028.02.028.02.028.02.029.02.028.019.029.018.029.019.029.018.03.017.028.018.03.017.03.017.03.016.03.016.029.016.03.016.03.015.03.015.03.014.032.014.03.014.03.014.032.013.03.013.032.013.03.012.032.012.031.011.031.012.032.01.031.011.032.01.031.01.032.01.031.01.032.009.032.008.032.008.031.008.032.008.032.007.032.008.032.006.032.007.032.006.032.005.032.006.032.005.032.004.032.005.032.004.032.004.032.003.032.003.032.003.032.002.032.002.032.002.031.002h.032l.032.002h.158l.031-.002.032-.001.031-.002.031-.002.031-.002.032-.003.03-.003.032-.003.03-.003.031-.004.031-.004.03-.005.031-.004.03-.005.03-.005.03-.006.031-.006.03-.006.03-.007.03-.006.03-.007.029-.008.029-.007.03-.008.028-.008.03-.008.028-.01.029-.008.028-.01.029-.009.028-.01.028-.01.028-.01.028-.01.028-.011.027-.011.027-.012.027-.011.028-.012.026-.012.027-.013.027-.012.026-.013.026-.013.026-.013.026-.014.025-.014.026-.014.025-.014.025-.014.024-.015.025-.015.024-.015.025-.015.024-.016.024-.015.023-.016.023-.017.024-.016.023-.016.022-.017.023-.017.022-.017.022-.018.022-.017.022-.018.021-.018.021-.018.021-.018.021-.019.02-.018.02-.02.02-.018.02-.02.02-.018.02-.02.019-.02.019-.02.018-.02.019-.02.018-.02.018-.02.017-.02.018-.02.017-.022.017-.02.016-.022.017-.02.016-.022.016-.021.015-.022.016-.021.015-.022.015-.022.014-.022.015-.022.014-.022.014-.022.013-.023.014-.022.013-.023.012-.022.013-.023.012-.023.012-.023.012-.023.011-.023.012-.023.01-.023.011-.023.01-.024.01-.023.01-.023.01-.024.01-.023.009-.024.009-.024.008-.023.009-.024.008-.024.007-.023.008-.024.007-.024.007-.024.007-.023.006-.024.007-.024.006-.024.005-.024.006-.024.005-.024.005-.024.004-.024.005-.024.004-.024.004-.023.003-.024.004-.024.003-.024.002-.024.003-.024.002-.024.002-.023.002-.024.002-.024.001-.023.001-.024v-.024l.001-.023v-.117l-.002-.024v-.023l-.002-.023-.002-.023-.002-.023-.002-.023-.002-.023-.003-.023-.003-.023-.003-.022-.003-.023-.004-.022-.003-.023-.004-.022-.005-.022-.004-.022-.005-.022-.005-.022-.005-.022-.005-.022-.005-.021-.006-.022-.006-.021-.007-.022-.006-.02-.007-.022-.006-.02-.007-.022-.008-.02-.007-.021-.008-.02-.007-.021-.008-.02-.009-.02-.008-.02-.009-.02-.008-.02-.01-.02-.009-.02-.009-.018-.01-.02-.01-.019-.009-.019-.01-.018-.01-.019-.01-.018-.011-.019-.011-.018-.011-.018-.011-.018-.011-.018-.012-.017-.011-.018-.012-.017-.012-.017-.012-.017-.012-.017-.012-.016-.013-.017-.013-.016-.012-.016-.013-.016-.013-.016-.013-.015-.014-.016-.013-.015-.014-.015-.013-.015-.014-.015-.014-.014-.014-.014-.014-.015-.014-.014-.015-.013-.014-.014-.015-.014-.015-.013-.014-.013-.015-.013-.016-.013-.015-.012-.015-.013-.015-.012-.015-.012-.016-.011-.015-.012-.016-.011-.016-.012-.016-.01-.015-.012-.017-.01-.015-.01-.017-.011-.016-.01-.016-.01-.016-.01-.017-.01-.016-.009-.017-.009-.016-.009-.017-.008-.016-.01-.017-.007-.017-.009-.016-.008-.017-.007-.017-.008-.017-.007-.017-.008-.017-.007-.016-.007-.017-.006-.018-.007-.017-.006-.016-.006-.018-.006-.017-.005-.017-.006-.017-.005-.017-.005-.017-.005-.017-.005-.017-.005-.017-.004-.018-.004-.017-.004-.017-.004-.017-.004-.017-.003-.017-.003-.017-.003-.017-.003-.017-.003-.017-.002-.017-.003-.017-.002-.017-.002-.017-.002-.017-.001-.016-.002-.017-.001-.017-.001-.017-.001h-.016l-.017-.001h-.017l-.016-.001h-.066l-.016.002h-.016l-.016.001-.016.001-.016.002-.016.001-.016.002-.016.001-.016.002-.016.002-.015.003-.016.002-.015.002-.016.003-.015.003-.015.003-.015.003-.015.003z" clip-rule="evenodd"/></svg>