<svg xmlns="http://www.w3.org/2000/svg" width="94" height="24" fill="none" viewBox="0 0 94 24"><path fill="#fefaee" d="M28.234 7.552h2.25v9.098h-2.25zm3.143 5.663c0-2.25 1.38-3.593 3.51-3.593s3.51 1.343 3.51 3.593-1.35 3.6-3.51 3.6-3.51-1.313-3.51-3.6m4.762 0c0-1.238-.487-1.965-1.252-1.965s-1.245.75-1.245 1.965.472 1.95 1.245 1.95c.772 0 1.252-.69 1.252-1.943zm3.105 3.877h2.16a1.16 1.16 0 0 0 1.215.675c.855 0 1.305-.465 1.305-1.14v-1.26h-.045a2.13 2.13 0 0 1-2.047 1.23c-1.643 0-2.73-1.252-2.73-3.405s1.035-3.51 2.76-3.51a2.15 2.15 0 0 1 2.07 1.32V9.75h2.25v6.825c0 1.642-1.448 2.662-3.585 2.662-1.988 0-3.225-.892-3.353-2.137zm4.688-3.885c0-1.095-.503-1.785-1.298-1.785s-1.282.683-1.282 1.785c0 1.103.48 1.725 1.282 1.725.803 0 1.298-.607 1.298-1.717zm3.097 0c0-2.25 1.38-3.592 3.51-3.592s3.518 1.342 3.518 3.592-1.35 3.6-3.518 3.6-3.51-1.305-3.51-3.592zm4.763 0c0-1.237-.488-1.965-1.253-1.965s-1.207.758-1.207 1.98c0 1.223.472 1.95 1.237 1.95s1.223-.697 1.223-1.95zm3.12-5.092a1.148 1.148 0 1 1 1.17 1.117 1.095 1.095 0 0 1-1.17-1.102zm0 1.65h2.25v6.885h-2.25zm10.417 3.442c0 2.25-.997 3.533-2.707 3.533a2.145 2.145 0 0 1-2.1-1.275h-.045v3.39h-2.25V9.75h2.25v1.23h.045a2.15 2.15 0 0 1 2.085-1.328c1.725.03 2.752 1.32 2.752 3.57zm-2.25 0c0-1.095-.502-1.792-1.29-1.792-.787 0-1.29.705-1.297 1.792-.008 1.088.51 1.785 1.297 1.785.788 0 1.29-.682 1.29-1.77zm6.113-3.6c1.867 0 3 .885 3.052 2.303h-2.047c0-.488-.405-.795-1.028-.795-.622 0-.9.24-.9.592 0 .353.248.465.75.57l1.44.293c1.373.292 1.958.847 1.958 1.89 0 1.425-1.298 2.34-3.21 2.34-1.913 0-3.165-.915-3.263-2.318h2.168c.067.51.472.81 1.132.81s.96-.217.96-.577-.21-.435-.75-.548l-1.297-.277c-1.343-.278-2.048-.99-2.048-2.04.015-1.35 1.223-2.228 3.083-2.228zm10.732 7.028h-2.167v-1.283h-.045a1.96 1.96 0 0 1-1.995 1.433 2.393 2.393 0 0 1-2.52-2.588V9.75h2.25v3.93c0 .817.42 1.252 1.117 1.252a1.15 1.15 0 0 0 1.14-1.297V9.75h2.25zm1.088-6.885h2.175v1.327h.045a1.995 1.995 0 0 1 1.957-1.455 1.793 1.793 0 0 1 1.913 1.5h.045a2.11 2.11 0 0 1 2.115-1.5 2.18 2.18 0 0 1 2.126 1.44c.104.288.146.595.124.9v4.688h-2.25v-4.088c0-.75-.338-1.095-.968-1.095a.982.982 0 0 0-.982 1.11v4.073h-2.138v-4.118c0-.69-.337-1.065-.952-1.065a1 1 0 0 0-.96.706 1 1 0 0 0-.038.42v4.057h-2.25zM21.942 7.965a10 10 0 0 0-1.5-2.415 10.147 10.147 0 1 0-14.01 14.49 9.8 9.8 0 0 0 2.4 1.373c1.207.494 2.498.749 3.802.75A10.17 10.17 0 0 0 22.782 12a10 10 0 0 0-.84-4.035m-9.315-4.072c1.17 0 2.328.256 3.39.75q-.39.169-.81.232a4.3 4.3 0 0 0-3.638 3.638A2.25 2.25 0 0 1 9.537 10.5a4.3 4.3 0 0 0-3.638 3.638c-.045.489-.253.949-.592 1.305a8.1 8.1 0 0 1 7.327-11.565zM6.424 17.25c.09-.082.18-.157.27-.247A4.1 4.1 0 0 0 7.91 14.58a2.2 2.2 0 0 1 .653-1.365 2.12 2.12 0 0 1 1.357-.645 4.3 4.3 0 0 0 3.638-3.637 2.2 2.2 0 0 1 .652-1.433 2.15 2.15 0 0 1 1.373-.622 4.1 4.1 0 0 0 2.25-1.073 7.9 7.9 0 0 1 1.77 2.085.7.7 0 0 1-.098.105c-.358.377-.84.611-1.357.66a4.28 4.28 0 0 0-3.638 3.638 2.25 2.25 0 0 1-2.017 2.01 4.32 4.32 0 0 0-3.66 3.637c-.04.367-.167.719-.368 1.028a8.2 8.2 0 0 1-2.04-1.718m6.203 2.895a8.1 8.1 0 0 1-2.25-.315c.25-.466.413-.975.48-1.5a2.25 2.25 0 0 1 2.01-2.01 4.3 4.3 0 0 0 3.645-3.637 2.25 2.25 0 0 1 2.01-2.01 4.3 4.3 0 0 0 1.92-.75 8.113 8.113 0 0 1-7.815 10.185z"/></svg>