<svg width="56" height="56" viewBox="0 0 56 56" fill="none" xmlns="http://www.w3.org/2000/svg">
<circle cx="28" cy="28" r="28" fill="#FEFAEE"/>
<circle cx="28" cy="28" r="27.4167" stroke="#171717" stroke-opacity="0.16" stroke-width="1.16667"/>
<g clip-path="url(#clip0_18_173)">
<path fill-rule="evenodd" clip-rule="evenodd" d="M20.4166 13.4165C24.6047 13.4165 27.9999 16.8117 27.9999 20.9998V13.4165H35.5833C39.7714 13.4165 43.1666 16.8117 43.1666 20.9998C43.1666 25.188 39.7714 28.5832 35.5833 28.5832C39.7714 28.5832 43.1666 31.9784 43.1666 36.1665C43.1666 38.2461 42.3295 40.1302 40.9739 41.5002L40.9455 41.5288L40.9203 41.5538C39.55 42.9113 37.6646 43.7498 35.5833 43.7498C33.5161 43.7498 31.6421 42.9227 30.2742 41.5814C30.2564 41.5639 30.2387 41.5463 30.221 41.5288C30.2044 41.5121 30.1879 41.4955 30.1714 41.4787C28.8283 40.1105 27.9999 38.2352 27.9999 36.1665C27.9999 40.3546 24.6047 43.7498 20.4166 43.7498C16.2284 43.7498 12.8333 40.3546 12.8333 36.1665V28.5832H20.4166C16.2284 28.5832 12.8333 25.188 12.8333 20.9998C12.8333 16.8117 16.2284 13.4165 20.4166 13.4165ZM26.4833 20.9998C26.4833 24.3504 23.7671 27.0665 20.4166 27.0665V14.9332C23.7671 14.9332 26.4833 17.6493 26.4833 20.9998ZM41.6499 36.1665C41.6499 32.816 38.9338 30.0998 35.5833 30.0998C32.2327 30.0998 29.5166 32.816 29.5166 36.1665H41.6499ZM14.3499 30.0998V36.1665C14.3499 39.517 17.0661 42.2332 20.4166 42.2332C23.7671 42.2332 26.4833 39.517 26.4833 36.1665V30.0998H14.3499ZM29.5166 27.0665V14.9332H35.5833C38.9338 14.9332 41.6499 17.6493 41.6499 20.9998C41.6499 24.3504 38.9338 27.0665 35.5833 27.0665H29.5166Z" fill="#171717" fill-opacity="0.8"/>
</g>
<defs>
<clipPath id="clip0_18_173">
<rect width="30.3333" height="30.3333" fill="white" transform="translate(12.8333 13.4165)"/>
</clipPath>
</defs>
</svg>
