<svg width="56" height="56" viewBox="0 0 56 56" fill="none" xmlns="http://www.w3.org/2000/svg">
<circle cx="28" cy="28" r="28" fill="#FEFAEE"/>
<circle cx="28" cy="28" r="27.4167" stroke="#171717" stroke-opacity="0.16" stroke-width="1.16667"/>
<g clip-path="url(#clip0_18_160)">
<path fill-rule="evenodd" clip-rule="evenodd" d="M31.7917 37.5834C32.7875 37.5834 33.7736 37.3851 34.6937 36.9998C35.6137 36.6145 36.4497 36.0499 37.1539 35.3379C37.8581 34.626 38.4166 33.7808 38.7978 32.8506C39.1788 31.9205 39.375 30.9235 39.375 29.9167C39.375 26.8668 38.1765 23.9417 36.0433 21.785C33.9101 19.6283 31.0168 18.4167 28 18.4167C24.9832 18.4167 22.0899 19.6283 19.9567 21.785C17.8234 23.9417 16.625 26.8668 16.625 29.9167C16.625 30.9235 16.8212 31.9205 17.2022 32.8506C17.5833 33.7808 18.1419 34.626 18.8461 35.3379C19.5503 36.0499 20.3863 36.6145 21.3063 36.9998C22.2264 37.3851 23.2125 37.5834 24.2083 37.5834H31.7917ZM28 21.4834C25.7876 21.4834 23.6659 22.3719 22.1015 23.9535C20.5372 25.535 19.6583 27.6801 19.6583 29.9167C19.6583 30.5208 19.776 31.119 20.0047 31.6771C20.2333 32.2352 20.5685 32.7423 20.991 33.1694C21.4135 33.5966 21.9151 33.9354 22.4671 34.1666C23.0192 34.3978 23.6108 34.5167 24.2083 34.5167H31.7917C32.3892 34.5167 32.9808 34.3978 33.5329 34.1666C34.0849 33.9354 34.5865 33.5966 35.009 33.1694C35.4315 32.7423 35.7666 32.2352 35.9953 31.6771C36.224 31.119 36.3417 30.5208 36.3417 29.9167C36.3417 27.6801 35.4628 25.535 33.8985 23.9535C32.3341 22.3719 30.2124 21.4834 28 21.4834Z" fill="#171717" fill-opacity="0.8"/>
<path fill-rule="evenodd" clip-rule="evenodd" d="M22.6917 41.4166C21.3971 41.4166 20.1152 41.1191 18.9191 40.5412C17.723 39.9633 16.6363 39.1162 15.7208 38.0483C14.8054 36.9804 14.0792 35.7127 13.5838 34.3175C13.0884 32.9222 12.8334 31.4268 12.8334 29.9166C12.8334 25.85 14.4313 21.9498 17.2756 19.0743C20.1199 16.1987 23.9776 14.5833 28 14.5833C32.0225 14.5833 35.8802 16.1987 38.7245 19.0743C41.5688 21.9498 43.1667 25.85 43.1667 29.9166C43.1667 31.4268 42.9117 32.9222 42.4163 34.3175C41.9208 35.7127 41.1947 36.9804 40.2793 38.0483C39.3638 39.1162 38.2771 39.9633 37.081 40.5412C35.8849 41.1191 34.603 41.4166 33.3084 41.4166H22.6917ZM19.4205 21.2427C21.6959 18.9423 24.7821 17.6499 28 17.6499C31.218 17.6499 34.3041 18.9423 36.5796 21.2427C38.8551 23.5432 40.1334 26.6632 40.1334 29.9166C40.1334 31.0803 39.9365 32.2248 39.5614 33.2813C39.1862 34.3378 38.6452 35.2721 37.987 36.0399C37.3295 36.8069 36.5726 37.3879 35.773 37.7743C34.9753 38.1598 34.1393 38.3499 33.3084 38.3499H22.6917C21.8608 38.3499 21.0248 38.1598 20.2271 37.7743C19.4275 37.3879 18.6706 36.8069 18.0131 36.0399C17.3549 35.2721 16.8139 34.3378 16.4387 33.2813C16.0636 32.2248 15.8667 31.0803 15.8667 29.9166C15.8667 26.6632 17.145 23.5432 19.4205 21.2427Z" fill="#171717" fill-opacity="0.8"/>
<path d="M31.7917 33.75H27.9967C27.7419 33.7498 27.489 33.7235 27.2417 33.6726C26.7625 33.5737 26.3042 33.3814 25.8936 33.1039C25.27 32.6827 24.784 32.0841 24.497 31.3836C24.404 31.1564 24.3332 30.9219 24.285 30.6833C24.1846 30.1861 24.1824 29.6713 24.2813 29.1688C24.4276 28.4252 24.7887 27.7422 25.319 27.2061C25.8492 26.67 26.5248 26.3049 27.2603 26.157C27.2834 26.1523 27.3064 26.148 27.3294 26.1437C27.5517 26.1034 27.7761 26.0833 28.0001 26.0833C28.4957 26.0833 28.9888 26.1815 29.4511 26.3751C30.1439 26.6652 30.7361 27.1566 31.1527 27.7869C31.5694 28.4174 31.7917 29.1585 31.7917 29.9167H28.7584C28.7584 29.765 28.714 29.6168 28.6306 29.4907C28.5473 29.3647 28.4288 29.2664 28.2903 29.2083C28.1517 29.1503 27.9992 29.1351 27.8521 29.1647C27.705 29.1943 27.5699 29.2673 27.4639 29.3746C27.3578 29.4817 27.2856 29.6184 27.2563 29.7671C27.227 29.9158 27.2421 30.07 27.2995 30.2101C27.3569 30.3501 27.4541 30.4699 27.5788 30.5541C27.7035 30.6384 27.8501 30.6833 28.0001 30.6833H31.7917C31.8913 30.6833 31.99 30.6635 32.082 30.625C32.1739 30.5864 32.2575 30.53 32.328 30.4588C32.3984 30.3876 32.4542 30.3031 32.4924 30.2101C32.5304 30.1171 32.5501 30.0173 32.5501 29.9167C32.5501 28.6967 32.0707 27.5267 31.2174 26.664C30.3641 25.8013 29.2068 25.3167 28.0001 25.3167C27.8692 25.3167 27.7389 25.3223 27.6095 25.3336C27.2916 25.3613 26.979 25.4226 26.6768 25.5155C26.3794 25.6069 26.0921 25.7288 25.8193 25.8794C25.5069 26.0519 25.2136 26.262 24.9463 26.5067C24.8906 26.5576 24.8361 26.61 24.7828 26.664C24.4094 27.0414 24.1077 27.4777 23.8864 27.9512C23.7757 28.1879 23.6851 28.4339 23.6158 28.6866C23.5365 28.9755 23.4849 29.273 23.4627 29.575C23.4543 29.6884 23.4501 29.8023 23.4501 29.9167C23.4501 30.5178 23.5666 31.1162 23.7964 31.677C24.1408 32.5176 24.724 33.2359 25.4723 33.7414C25.4765 33.7443 25.4807 33.7472 25.485 33.75H24.2084C23.7105 33.75 23.2174 33.6509 22.7574 33.4582C22.2974 33.2655 21.8794 32.9832 21.5273 32.6272C21.1752 32.2713 20.8959 31.8487 20.7054 31.3836C20.5148 30.9185 20.4167 30.4201 20.4167 29.9167C20.4167 27.8833 21.2157 25.9333 22.6378 24.4955C24.06 23.0578 25.9888 22.25 28.0001 22.25C30.0113 22.25 31.9402 23.0578 33.3623 24.4955C34.7844 25.9333 35.5834 27.8833 35.5834 29.9167C35.5834 30.4201 35.4854 30.9185 35.2948 31.3836C35.1042 31.8487 34.8249 32.2713 34.4728 32.6272C34.1207 32.9832 33.7027 33.2655 33.2427 33.4582C32.7827 33.6509 32.2897 33.75 31.7917 33.75Z" fill="#171717" fill-opacity="0.8"/>
</g>
<defs>
<clipPath id="clip0_18_160">
<rect width="30.3333" height="26.8333" fill="white" transform="translate(12.8334 14.5833)"/>
</clipPath>
</defs>
</svg>
