<svg xmlns="http://www.w3.org/2000/svg" width="56" height="56" fill="none" viewBox="0 0 56 56"><circle cx="28" cy="28" r="28" fill="#fefaee"/><circle cx="28" cy="28" r="27.417" stroke="#171717" stroke-opacity=".16" stroke-width="1.167"/><g clip-path="url(#a)"><path fill="#171717" fill-opacity=".8" fill-rule="evenodd" d="m19.822 20.346-8.155 8.237a23.1 23.1 0 0 0 5.526 4.123 11.6 11.6 0 0 0 2.64 4.127 11.467 11.467 0 0 0 16.334 0 11.6 11.6 0 0 0 2.64-4.127 23.1 23.1 0 0 0 5.526-4.123l-8.148-8.23-.018-.02a11.467 11.467 0 0 0-16.334 0zm15.564 13.847a22.9 22.9 0 0 1-14.772 0q.386.518.853.99a9.174 9.174 0 0 0 13.066 0q.468-.472.853-.99M21.634 21.819q.921.615 1.946 1.044a11.45 11.45 0 0 0 10.786-1.044 9.173 9.173 0 0 0-12.732 0" clip-rule="evenodd"/></g><defs><clipPath id="a"><path fill="#fff" d="M11.667 16.917h32.667V40.25H11.667z"/></clipPath></defs></svg>